<?xml version="1.0" standalone="no"?>
<!DOCTYPE svg PUBLIC "-//W3C//DTD SVG 20010904//EN"
 "http://www.w3.org/TR/2001/REC-SVG-20010904/DTD/svg10.dtd">
<svg version="1.0" xmlns="http://www.w3.org/2000/svg"
 width="1020.000000pt" height="1020.000000pt" viewBox="0 0 1020.000000 1020.000000"
 preserveAspectRatio="xMidYMid meet">
<metadata>
Created by potrace 1.11, written by Peter Selinger 2001-2013
</metadata>
<g transform="translate(0.000000,1020.000000) scale(0.100000,-0.100000)"
fill="#000000" stroke="none">
<path d="M4659 9825 c-2 -2 -40 -6 -84 -10 -87 -7 -153 -13 -200 -20 -16 -2
-52 -7 -80 -10 -71 -9 -308 -53 -385 -71 -36 -9 -72 -17 -80 -19 -8 -2 -42
-11 -75 -20 -33 -9 -82 -23 -110 -30 -123 -32 -429 -143 -579 -210 -176 -78
-376 -182 -535 -277 -78 -47 -305 -196 -341 -225 -8 -6 -69 -53 -135 -104 -66
-51 -125 -98 -131 -104 -6 -5 -40 -35 -75 -65 -86 -74 -339 -327 -426 -425
-317 -359 -620 -832 -787 -1230 -20 -49 -44 -103 -51 -120 -82 -184 -227 -668
-261 -875 -2 -14 -7 -41 -10 -60 -4 -19 -8 -45 -9 -57 -3 -23 -14 -93 -21
-127 -2 -10 -6 -41 -9 -70 -4 -28 -8 -64 -10 -81 -27 -217 -27 -848 -1 -1015
3 -14 7 -47 10 -75 51 -425 171 -874 341 -1270 91 -213 145 -317 161 -311 8 3
179 115 382 248 731 483 1067 707 1079 717 7 6 14 11 16 11 3 0 206 134 452
298 l447 298 2 155 c1 135 4 162 25 218 l23 63 -48 71 c-27 39 -94 134 -149
212 -55 77 -118 168 -140 202 l-40 61 -70 0 c-85 1 -145 22 -181 65 -53 63
-15 186 91 293 33 34 82 74 109 89 l48 28 -5 53 c-12 115 -87 210 -236 298
-86 50 -85 50 -176 30 -64 -14 -184 -8 -227 12 -135 59 -154 189 -55 374 31
58 127 197 174 252 290 337 886 817 1358 1093 55 32 121 70 146 85 71 43 365
185 449 218 41 16 84 33 95 37 11 5 22 9 25 10 156 48 189 57 260 72 14 3 63
6 110 5 129 0 188 -34 214 -123 19 -65 11 -103 -47 -219 -51 -104 -52 -106
-52 -200 0 -76 5 -108 24 -158 28 -75 101 -152 185 -197 l56 -30 43 24 c23 13
65 39 92 57 190 124 296 130 345 22 26 -58 19 -108 -24 -178 -38 -61 -39 -75
-3 -112 11 -12 322 -445 422 -587 22 -32 92 -131 155 -220 212 -299 305 -430
383 -543 147 -212 267 -383 278 -399 6 -9 51 -74 100 -145 50 -71 96 -137 104
-147 8 -9 15 -19 15 -21 0 -3 48 -74 108 -158 59 -84 132 -190 162 -236 l55
-82 65 4 c164 9 254 -67 220 -187 -14 -53 -48 -88 -175 -180 -49 -36 -95 -74
-102 -85 -15 -24 5 -130 34 -187 37 -70 134 -150 262 -215 43 -21 45 -21 102
-6 142 40 272 12 328 -70 33 -48 37 -136 11 -208 -18 -46 -93 -183 -109 -196
-3 -3 -24 -27 -46 -55 -91 -116 -331 -357 -481 -485 -123 -105 -402 -324 -484
-380 -13 -8 -28 -20 -34 -25 -26 -24 -291 -209 -411 -287 -352 -229 -676 -378
-925 -423 -14 -2 -45 -8 -70 -13 -64 -12 -167 -6 -217 13 -52 20 -100 73 -109
119 -12 65 2 119 56 226 52 102 54 108 53 185 0 100 -25 169 -90 249 -27 33
-73 77 -104 99 l-57 39 -63 -34 c-35 -20 -93 -53 -129 -75 -158 -96 -250 -100
-297 -10 -9 17 -18 40 -20 49 -1 10 -3 21 -4 25 -5 28 6 57 39 113 l39 63 -91
122 c-50 66 -140 193 -201 282 l-110 161 -45 0 c-97 2 -246 39 -316 78 -23 13
-47 24 -52 24 -10 0 -72 -44 -492 -349 -286 -207 -580 -424 -870 -640 -107
-80 -207 -155 -223 -166 -96 -70 -243 -180 -247 -185 -3 -3 -104 -79 -225
-170 -121 -91 -229 -173 -239 -182 -19 -18 -17 -21 100 -136 135 -133 226
-217 345 -317 60 -49 311 -234 374 -275 39 -24 72 -47 75 -50 3 -3 16 -12 30
-20 14 -8 81 -47 150 -87 144 -85 380 -203 525 -263 192 -80 321 -125 540
-190 103 -31 341 -88 395 -95 8 -1 29 -5 45 -8 31 -7 62 -12 130 -22 80 -12
91 -14 150 -21 33 -3 69 -8 80 -10 139 -26 831 -25 995 0 14 3 52 7 85 11 84
9 116 14 205 29 19 3 46 8 60 10 46 7 184 37 241 51 30 8 64 16 75 18 10 2 39
9 64 16 25 7 52 15 60 16 46 11 282 89 390 130 1368 520 2423 1651 2848 3055
18 58 34 114 37 125 2 11 18 76 34 145 17 69 32 136 35 150 21 108 31 164 41
235 4 22 8 51 10 65 2 14 7 52 10 85 4 33 8 74 11 90 24 196 24 787 0 944 -3
15 -7 53 -11 86 -3 33 -10 87 -15 120 -5 33 -12 78 -15 100 -4 22 -15 85 -27
140 -11 55 -22 111 -24 125 -3 14 -7 32 -10 40 -3 8 -8 26 -10 38 -8 39 -30
120 -64 236 -154 517 -410 1026 -738 1466 -47 63 -89 117 -92 120 -3 3 -25 30
-50 60 -155 193 -400 440 -615 621 -361 303 -783 558 -1240 749 -130 54 -373
139 -475 165 -8 3 -58 16 -110 30 -108 29 -96 26 -255 59 -142 30 -170 35
-290 51 -33 4 -68 9 -79 11 -10 2 -51 6 -90 10 -39 3 -82 8 -96 11 -28 6 -696
14 -701 8z"/>
</g>
</svg>
